# xmcd
#
# Track frame offsets:
# 150
# 18282
# 32340
# 48085
# 59279
# 75643
# 89834
# 103424
# 115272
# 132923
# 146974
# 165951
# 192489
# 218353
# 253055
# 269398
# 280605
# 320559
# 337080
# 351840
#
# Disc length: 4735 seconds
#
# Revision: 0
# Processed by: cddbd v1.5PL3 Copyright (c) Steve Scherf et al.
# Submitted via: Audion 3.0.2 (http://www.panic.com/audion/)
#
DISCID=28127d14
DTITLE=Benny Goodman - Paris Listen To The Magic! and Lady Be Good (13-20)
DYEAR=1900
DGENRE=
TTITLE0=HOW'YA GONNA KEEP 'EM  DOWN ON THE FARM
TTITLE1=AUTUMN LEAVES
TTITLE2=I LOVE PARIS
TTITLE3=APRIL IN PARIS
TTITLE4=A MAN AND A WOMAN
TTITLE5=C'EST MAGNIFIQUE
TTITLE6=PETITE FLEUR
TTITLE7=I WISH YOU LOVE
TTITLE8=MIMI
TTITLE9=C'EST SI BON
TTITLE10=UNDER PARIS SKIES
TTITLE11=I WILL WAIT FOR YOU
TTITLE12=OH, LADY BE GOOD
TTITLE13=ONE O'CLOCK JUMP
TTITLE14=I CAN'T GIVE YOU ANYTHING BUT LOVE
TTITLE15=STOMPIN' AT THE SAVOY
TTITLE16=HOW HIGH THE MOON
TTITLE17=I'VE FOUND A NEW BABY
TTITLE18=JUMPIN' AT THE WOODSIDE
TTITLE19=LET'S DANCE
EXTD=
EXTT0=
EXTT1=
EXTT2=
EXTT3=
EXTT4=
EXTT5=
EXTT6=
EXTT7=
EXTT8=
EXTT9=
EXTT10=
EXTT11=
EXTT12=
EXTT13=
EXTT14=
EXTT15=
EXTT16=
EXTT17=
EXTT18=
EXTT19=
PLAYORDER=
